<svg width="1068" height="500" viewBox="0 0 1068 500" fill="none" xmlns="http://www.w3.org/2000/svg">
<path d="M-11 130C65.1404 181.034 84.1963 215.396 102.5 280.5C117.313 347.865 130.248 384.065 167 444C200.199 489.813 203.564 510.736 211 548.5L308 573.5C348.088 550.764 369.961 550.153 412.5 478C436.053 440.339 439.915 416.689 437.5 372C434.061 345.869 427.908 336.809 412.5 326.5C402.466 325.21 399.131 327.869 395.5 336C392.231 344.673 391.958 348.243 391 355C389.679 364.471 391.357 368.783 395.5 376C401.886 381.758 405.641 383.669 412.5 386C422.654 391.624 427.948 393.018 437.5 396C484.398 407.793 510.213 410.137 556 412C654.479 413.419 699.798 435.048 789 456C877.212 453.126 913.174 438.433 940 376L976 297L1023 171.5C1024.69 138.573 1028.43 121.255 1039 92C1053.61 56.7729 1060.8 36.9381 1067 1" stroke="black" stroke-dasharray="10 10"/>
</svg>
