<svg width="38" height="37" viewBox="0 0 38 37" fill="none" xmlns="http://www.w3.org/2000/svg">
<path d="M34.5373 33.6283C34.5373 33.6283 20.7117 30.5573 20.2493 30.4108L20.2192 30.4047L20.2208 30.4016C17.336 29.472 15.1415 27.107 14.4781 24.1825L14.1646 25.4991C13.7608 27.6528 11.8307 29.2916 9.30018 29.2916C6.8765 29.2916 4.75008 27.2211 4.75008 24.6666C4.75008 22.5823 6.17666 20.8402 8.12416 20.262L15.1367 18.6587C15.1811 18.5693 15.2159 18.4753 15.2634 18.3889C14.9357 18.4583 14.5984 18.4999 14.2501 18.4999C12.1854 18.4999 9.66475 16.9783 9.52541 14.1123C7.11875 11.9078 5.04775 11.5624 3.16675 11.5624V9.24992C5.18075 9.24992 7.53675 9.58754 10.1461 11.5855C10.4722 11.0321 10.9061 10.5511 11.4317 10.1718C9.508 7.97959 9.30018 4.85463 9.30018 3.14492L11.8751 3.08325V3.14492C11.8751 5.44663 12.0572 7.95492 13.935 9.28075C14.0411 9.27459 14.1424 9.24992 14.2501 9.24992C16.8737 9.24992 19.0001 11.3204 19.0001 13.8749C19.0001 14.2141 18.9573 14.5425 18.8861 14.8616C18.9763 14.8153 19.0729 14.7814 19.1632 14.7383L20.8114 7.90404C21.4067 6.01088 23.1943 4.62492 25.3334 4.62492C27.957 4.62492 30.0834 6.69538 30.0834 9.24992C30.0834 11.4036 28.565 13.1966 26.5193 13.7115L24.8283 14.0954C28.0172 14.7799 30.5537 17.1479 31.3754 20.2096L34.5373 33.6283Z" fill="#F07605"/>
<path opacity="0.5" d="M28.5001 32.2824L33.1535 27.7515L33.7805 30.4108L31.2329 32.8914C30.3969 32.7064 29.4627 32.4967 28.5001 32.2824ZM24.7935 31.4515L32.3017 24.1409L31.6747 21.4815L22.0686 30.8348C22.8286 31.009 23.7627 31.2202 24.7935 31.4515ZM18.6692 29.7063L30.4998 18.187C30.1008 17.504 29.6163 16.8812 29.0463 16.3323L16.7581 28.2972C17.3217 28.8507 17.9693 29.3178 18.6692 29.7063ZM13.935 9.28075C12.0572 7.95492 11.8751 5.44817 11.8751 3.14492V3.08325L9.30018 3.14492C9.30018 4.85617 9.508 7.97959 11.4317 10.1718C12.1411 9.65846 12.9992 9.34242 13.935 9.28075ZM9.30018 13.8749C9.30018 13.0378 9.74708 12.2623 10.1461 11.5855C7.53675 9.58754 5.18075 9.24992 3.16675 9.24992V11.5624C5.04775 11.5624 7.11875 11.9078 9.52541 14.1123C9.52225 14.0306 9.30018 13.9597 9.30018 13.8749Z" fill="#F07605"/>
<path opacity="0.4" d="M14.1645 25.4961C13.7607 27.6529 11.8307 29.2917 9.5 29.2917C6.87642 29.2917 4.75 27.2212 4.75 24.6667C4.75 22.5823 6.17658 20.8403 8.12408 20.2621L15.8333 18.5L14.1645 25.4961ZM30.0833 9.25C30.0833 6.69546 27.9569 4.625 25.3333 4.625C23.1942 4.625 21.4067 6.01096 20.8113 7.90412L19 15.4167L26.5192 13.7116C28.5649 13.1967 30.0833 11.4037 30.0833 9.25Z" fill="white"/>
</svg>
