<svg width="74" height="77" viewBox="0 0 74 77" fill="none" xmlns="http://www.w3.org/2000/svg">
<path d="M6.74341 69.9835C6.74341 69.9835 12.8854 41.9683 13.1783 41.0315L13.1907 40.9705L13.1968 40.9737C15.0561 35.1281 19.7859 30.6814 25.635 29.3371L23.0018 28.7018C18.6944 27.8837 15.4168 23.9727 15.4168 19.2501C15.4168 13.9339 19.5577 9.62508 24.6668 9.62508C28.8355 9.62508 32.3197 12.5158 33.4759 16.462L36.6826 30.6717C36.8614 30.7616 37.0495 30.8322 37.2222 30.9284C37.0834 30.2643 37.0002 29.5809 37.0002 28.8751C37.0002 24.6914 40.0434 19.5837 45.7753 19.3014C50.1845 14.4247 50.8752 10.2282 50.8752 6.41675H55.5002C55.5002 10.4977 54.8249 15.2717 50.8289 20.5591C51.9358 21.22 52.8978 22.0991 53.6563 23.1642C58.0408 19.2661 64.2907 19.2501 67.7102 19.2501L67.8335 24.0626H67.7102C63.1067 24.0626 58.0902 24.4315 55.4385 28.2366C55.4508 28.4516 55.5002 28.6569 55.5002 28.8751C55.5002 34.1913 51.3592 38.5001 46.2502 38.5001C45.5718 38.5001 44.9151 38.4135 44.2768 38.2691C44.3693 38.452 44.4372 38.6477 44.5235 38.8305L58.1919 42.1704C61.9782 43.3767 64.7502 46.999 64.7502 51.3334C64.7502 56.6496 60.6092 60.9584 55.5002 60.9584C51.1927 60.9584 47.6068 57.8816 46.577 53.7365L45.8092 50.31C44.4402 56.7715 39.7042 61.9113 33.5807 63.5764L6.74341 69.9835Z" fill="#F07605"/>
<path opacity="0.5" d="M9.43516 57.7501L18.4971 67.1794L13.1783 68.4499L8.21725 63.2877C8.58725 61.5937 9.00657 59.7008 9.43516 57.7501ZM11.0971 50.2394L25.7182 65.4533L31.037 64.1828L12.3304 44.7178C11.982 46.2578 11.5596 48.1507 11.0971 50.2394ZM14.5874 37.8295L37.6261 61.8022C38.992 60.9937 40.2377 60.012 41.3353 58.857L17.4056 33.9571C16.2987 35.0992 15.3644 36.4115 14.5874 37.8295ZM55.4385 28.2366C58.0902 24.4315 63.1037 24.0626 67.7102 24.0626H67.8335L67.7102 19.2501C64.2877 19.2501 58.0408 19.2661 53.6563 23.1642C54.6831 24.6016 55.3152 26.3405 55.4385 28.2366ZM46.2502 19.2501C47.9244 19.2501 49.4753 19.7506 50.8289 20.5591C54.8249 15.2717 55.5002 10.4977 55.5002 6.41675H50.8752C50.8752 10.2282 50.1845 14.4247 45.7753 19.3014C45.9387 19.295 46.0806 19.2501 46.2502 19.2501Z" fill="#F07605"/>
<path opacity="0.4" d="M23.0078 28.7017C18.6942 27.8836 15.4167 23.9727 15.4167 19.25C15.4167 13.9338 19.5576 9.625 24.6667 9.625C28.8353 9.625 32.3195 12.5157 33.4757 16.462L37 32.0833L23.0078 28.7017ZM55.5 60.9583C60.6091 60.9583 64.75 56.6495 64.75 51.3333C64.75 46.9989 61.9781 43.3767 58.1918 42.1703L43.1667 38.5L46.5768 53.7364C47.6067 57.8815 51.1926 60.9583 55.5 60.9583Z" fill="white"/>
</svg>
