<svg width="23" height="22" viewBox="0 0 23 22" fill="none" xmlns="http://www.w3.org/2000/svg">
<path d="M17 8H18C19.0609 8 20.0783 8.42143 20.8284 9.17157C21.5786 9.92172 22 10.9391 22 12C22 13.0609 21.5786 14.0783 20.8284 14.8284C20.0783 15.5786 19.0609 16 18 16H17" stroke="#F07605" stroke-width="2" stroke-linecap="round" stroke-linejoin="round"/>
<path d="M1 8H17V17C17 18.0609 16.5786 19.0783 15.8284 19.8284C15.0783 20.5786 14.0609 21 13 21H5C3.93913 21 2.92172 20.5786 2.17157 19.8284C1.42143 19.0783 1 18.0609 1 17V8Z" stroke="#F07605" stroke-width="2" stroke-linecap="round" stroke-linejoin="round"/>
<path d="M5 1V4" stroke="#F07605" stroke-width="2" stroke-linecap="round" stroke-linejoin="round"/>
<path d="M9 1V4" stroke="#F07605" stroke-width="2" stroke-linecap="round" stroke-linejoin="round"/>
<path d="M13 1V4" stroke="#F07605" stroke-width="2" stroke-linecap="round" stroke-linejoin="round"/>
</svg>
