<svg width="86" height="35" viewBox="0 0 86 35" fill="none" xmlns="http://www.w3.org/2000/svg">
<path d="M7.91667 27.7333C8.70556 27.7333 9.28333 27.5111 9.65 27.0667C10.0167 26.6222 10.2 26.0944 10.2 25.4833V24.3167C10.2 23.5944 9.96667 23.0833 9.5 22.7833C9.03333 22.4722 8.50556 22.3167 7.91667 22.3167H6.61667V27.7333H7.91667ZM9.96667 16.4667C9.96667 15.8 9.78333 15.3389 9.41667 15.0833C9.05 14.8167 8.52222 14.6833 7.83333 14.6833H6.61667V19.5H7.96667C8.61111 19.5 9.10556 19.25 9.45 18.75C9.79444 18.2389 9.96667 17.6167 9.96667 16.8833V16.4667ZM9.05 31.15C8.18333 31.15 7.06111 31.1278 5.68333 31.0833C4.30556 31.0389 3.31667 31.0111 2.71667 31H1.11667V11.4667H4C4.7 11.4667 5.5 11.4444 6.4 11.4C7.3 11.3444 7.95 11.3167 8.35 11.3167C9.65 11.3167 10.7444 11.4222 11.6333 11.6333C12.5333 11.8444 13.2389 12.1611 13.75 12.5833C14.2611 13.0056 14.6222 13.4944 14.8333 14.05C15.0556 14.6056 15.1667 15.2667 15.1667 16.0333C15.1667 17.2111 14.8944 18.2222 14.35 19.0667C13.8056 19.9111 13.0167 20.4389 11.9833 20.65C14.6056 20.8833 15.9167 22.4222 15.9167 25.2667C15.9167 26.1222 15.7889 26.9 15.5333 27.6C15.2778 28.2889 14.8833 28.9056 14.35 29.45C13.8278 29.9833 13.1167 30.4 12.2167 30.7C11.3167 31 10.2611 31.15 9.05 31.15ZM25.0241 31.35C23.8796 31.35 22.863 31.2389 21.9741 31.0167C21.0963 30.7944 20.3741 30.4944 19.8074 30.1167C19.2519 29.7389 18.7908 29.2722 18.4241 28.7167C18.0685 28.15 17.8185 27.5556 17.6741 26.9333C17.5296 26.3111 17.4574 25.6222 17.4574 24.8667V11.4667H23.3908V24.1167C23.3908 25.5278 23.5352 26.5 23.8241 27.0333C24.1241 27.5556 24.5574 27.8167 25.1241 27.8167C25.4352 27.8167 25.7074 27.7667 25.9408 27.6667C26.1741 27.5556 26.3908 27.3722 26.5908 27.1167C26.7908 26.85 26.9408 26.4722 27.0408 25.9833C27.1519 25.4833 27.2074 24.8778 27.2074 24.1667V11.4667H32.4741V24.9667C32.4741 25.7111 32.4074 26.3833 32.2741 26.9833C32.1519 27.5833 31.9185 28.1667 31.5741 28.7333C31.2408 29.2889 30.7963 29.7556 30.2408 30.1333C29.6963 30.5 28.9796 30.7944 28.0908 31.0167C27.213 31.2389 26.1908 31.35 25.0241 31.35ZM34.2937 31V27.55L40.1104 16.9167L41.4438 15.35L34.8438 15.7167V11.4667H47.6104V14.3167L41.3271 25.8667L40.1771 27.1667L47.8104 26.8V31H34.2937ZM48.8934 31V27.55L54.71 16.9167L56.0434 15.35L49.4434 15.7167V11.4667H62.21V14.3167L55.9267 25.8667L54.7767 27.1667L62.41 26.8V31H48.8934Z" fill="#F07605"/>
<path d="M63.49 21V18.585L67.5617 11.1417L68.495 10.045L63.875 10.3017V7.32667H72.8117V9.32167L68.4133 17.4067L67.6083 18.3167L72.9517 18.06V21H63.49Z" fill="#F07605"/>
<path d="M74.6233 12V10.62L76.9499 6.36667L77.4833 5.74L74.8433 5.88667V4.18667H79.9499V5.32667L77.4366 9.94667L76.9766 10.4667L80.0299 10.32V12H74.6233Z" fill="#F07605"/>
</svg>
