<svg width="42" height="41" viewBox="0 0 42 41" fill="none" xmlns="http://www.w3.org/2000/svg">
<g clip-path="url(#clip0_437_1663)">
<rect x="0.686523" width="41" height="41" rx="20.5" fill="#F07605" fill-opacity="0.25"/>
<path d="M34.0198 41V37.6667C34.0198 35.8986 33.3174 34.2029 32.0672 32.9526C30.8169 31.7024 29.1213 31 27.3531 31H14.0198C12.2517 31 10.556 31.7024 9.30577 32.9526C8.05553 34.2029 7.35315 35.8986 7.35315 37.6667V41" fill="#F07605"/>
<path d="M20.6866 24.3333C24.3685 24.3333 27.3532 21.3486 27.3532 17.6667C27.3532 13.9848 24.3685 11 20.6866 11C17.0047 11 14.0199 13.9848 14.0199 17.6667C14.0199 21.3486 17.0047 24.3333 20.6866 24.3333Z" fill="#F07605"/>
</g>
<defs>
<clipPath id="clip0_437_1663">
<rect x="0.686523" width="41" height="41" rx="20.5" fill="white"/>
</clipPath>
</defs>
</svg>
