<svg width="22" height="22" viewBox="0 0 22 22" fill="none" xmlns="http://www.w3.org/2000/svg">
<path d="M10 3.06055H3C2.46957 3.06055 1.96086 3.27126 1.58579 3.64633C1.21071 4.02141 1 4.53011 1 5.06055V19.0605C1 19.591 1.21071 20.0997 1.58579 20.4748C1.96086 20.8498 2.46957 21.0605 3 21.0605H17C17.5304 21.0605 18.0391 20.8498 18.4142 20.4748C18.7893 20.0997 19 19.591 19 19.0605V12.0605" stroke="#332D28" stroke-width="1.5" stroke-linecap="round" stroke-linejoin="round"/>
<path d="M17.5 1.56077C17.8978 1.16295 18.4374 0.939453 19 0.939453C19.5626 0.939453 20.1022 1.16295 20.5 1.56077C20.8978 1.9586 21.1213 2.49816 21.1213 3.06077C21.1213 3.62338 20.8978 4.16295 20.5 4.56077L11 14.0608L7 15.0608L8 11.0608L17.5 1.56077Z" stroke="#332D28" stroke-width="1.5" stroke-linecap="round" stroke-linejoin="round"/>
</svg>
