<svg width="34" height="33" viewBox="0 0 34 33" fill="none" xmlns="http://www.w3.org/2000/svg">
<path d="M28.6667 2H5.33333C3.49238 2 2 3.46548 2 5.27324V28.1859C2 29.9937 3.49238 31.4591 5.33333 31.4591H28.6667C30.5076 31.4591 32 29.9937 32 28.1859V5.27324C32 3.46548 30.5076 2 28.6667 2Z" stroke="#F07605" stroke-width="3" stroke-linecap="round" stroke-linejoin="round"/>
<path d="M11.1665 13.456C12.5472 13.456 13.6665 12.3569 13.6665 11.0011C13.6665 9.64525 12.5472 8.54614 11.1665 8.54614C9.78579 8.54614 8.6665 9.64525 8.6665 11.0011C8.6665 12.3569 9.78579 13.456 11.1665 13.456Z" stroke="#F07605" stroke-width="3" stroke-linecap="round" stroke-linejoin="round"/>
<path d="M32.0002 21.6399L23.6668 13.4568L5.3335 31.4596" stroke="#F07605" stroke-width="3" stroke-linecap="round" stroke-linejoin="round"/>
</svg>
